<?xml version="1.0" encoding="utf-8"?>
<!-- Generator: Adobe Illustrator 25.4.1, SVG Export Plug-In . SVG Version: 6.00 Build 0)  -->
<svg version="1.1" id="圖層_1" xmlns="http://www.w3.org/2000/svg" xmlns:xlink="http://www.w3.org/1999/xlink" x="0px" y="0px"
	 viewBox="0 0 111.2 54" style="enable-background:new 0 0 111.2 54;" xml:space="preserve">
<style type="text/css">
	.st0{fill:none;}
	.st1{fill:#FFFFFF;}
	.st2{fill:#B0D261;}
</style>
<g>
	<g>
		<g>
			<g>
				<g>
					<path class="st0" d="M63,47c0,0,0,0.1-0.1,0.3L63,47z"/>
					<path class="st1" d="M78.3,30.6l1.7-4.7H74C73,26,70.7,26.3,69.5,29L63,46.9h0c0,0,0,0,0,0l-0.1,0.3c-0.4,1.2-1.8,6.2,3,6.8
						h7.9c0.5,0,1.7-0.3,2.4-1.9l1.8-5h-5.7l3.5-9.6h3.9c0.5,0,1.7-0.3,2.4-1.9l1.8-5H78.3z"/>
					<path class="st1" d="M63,46.9L63,46.9L63,46.9C63,47,63,46.9,63,46.9z"/>
				</g>
				<g>
					<path class="st0" d="M5.6,25.9c-0.1,0-0.3,0-0.3,0h0.6c0,0-0.1,0-0.1,0C5.8,25.9,5.7,25.9,5.6,25.9z"/>
					<path class="st1" d="M5.3,25.9L5.3,25.9L5.3,25.9C5.2,25.9,5.2,25.9,5.3,25.9z"/>
				</g>
				<g>
					<path class="st1" d="M44.2,25.9c-0.9,0.1-3.3,0.4-4.6,3.2L35.4,41h9.4l5.5-15.1H44.2z"/>
				</g>
				<g>
					<path class="st2" d="M67.1,10.6L56.4,0L53,9.2l0,0c-0.9,3.2,0.8,5.5,1.3,6.1l10.7,10.6l0,0l3.5-9.5c0.1-0.2,0.1-0.4,0.1-0.5
						C68.8,15.1,68.9,12.7,67.1,10.6z"/>
				</g>
				<g>
					<path class="st1" d="M55.6,52.1l9.5-26.2H59c-0.9,0.1-3.3,0.4-4.5,3.1l-9.1,25H53c0,0,0,0,0,0S54.6,54.2,55.6,52.1z"/>
				</g>
			</g>
		</g>
		<g>
			<path class="st0" d="M108,25.9c-0.1,0-0.1,0-0.1,0l-2.1,0H108L108,25.9z"/>
			<path class="st1" d="M109.6,26.2c-0.5-0.2-1.3-0.2-1.6-0.3h-0.1h-2.2l-0.1,0v0h-0.2h-9h-2.7h-0.7c-5.4,0.2-3.9,6-3.7,6.7
				l5.3,14.5h-5.4l2.6-7.2h-4.9c-0.6,0.1-2,0.4-2.9,2.4h0l-1.9,5.3c-0.5,1.6-1.3,5.8,3.2,6.4h1.4h10.4h1.7h2.2
				c4.3-0.6,3.7-4.5,3.2-6.2L99,32.8h4l-0.9,2.4h4.9c0.6-0.1,2-0.4,2.8-2.3l1.3-3.5C111.6,27.5,110.6,26.6,109.6,26.2z"/>
			<polygon class="st1" points="105.8,25.9 105.7,25.9 105.7,25.9 			"/>
		</g>
	</g>
	<path class="st2" d="M10.6,52.9c0.1,0,0.1,0.1,0.2,0.1C10.7,53,10.6,52.9,10.6,52.9L10.6,52.9z"/>
	<polyline class="st2" points="20.4,25.9 14.9,41 19.6,54 19.6,54 25.1,38.9 20.4,25.9 	"/>
	<line class="st2" x1="29.4" y1="27" x2="29.4" y2="27"/>
	<path class="st2" d="M11.1,53.3c-0.1,0-0.2-0.1-0.3-0.2C11,53.2,11.1,53.2,11.1,53.3z"/>
	<path class="st2" d="M13.5,54h0.1c-0.5,0-1.4-0.1-2.4-0.7C12.1,53.8,13,54,13.5,54z"/>
	<path class="st1" d="M10.9,53.1c0,0-0.1-0.1-0.1-0.1C10.8,53.1,10.8,53.1,10.9,53.1z"/>
	<path class="st1" d="M11.2,53.3C11.2,53.3,11.2,53.3,11.2,53.3C11.2,53.3,11.2,53.3,11.2,53.3z"/>
	<path class="st1" d="M14.9,41l-4.3-11.9c-1.3-3-3.9-3.2-4.7-3.2H5.3c-0.1,0-0.1,0-0.1,0l0,0H0l9,24.9c0.4,1,1,1.6,1.6,2.1
		c0.1,0,0.1,0.1,0.2,0.1c0,0,0.1,0.1,0.1,0.1c0.1,0.1,0.2,0.1,0.3,0.2c0,0,0.1,0,0.1,0.1c1,0.6,2,0.6,2.4,0.7h5.9L14.9,41z"/>
	<path class="st1" d="M31,29.1c-0.4-1-1-1.6-1.6-2.1c-1.2-1-2.6-1.1-3.1-1.1h-0.6c-0.1,0-0.1,0-0.1,0l0,0h-5.2l4.7,13l4.3,11.9
		c1.3,2.9,3.8,3.1,4.6,3.2H40L31,29.1z"/>
</g>
</svg>
