<svg id="圖層_1" data-name="圖層 1" xmlns="http://www.w3.org/2000/svg" viewBox="0 0 686.89 333.5"><defs><style>.cls-1{fill:#004d6a;}.cls-2{fill:#72bb2f;}</style></defs><path class="cls-1" d="M644.14,444c-.1.24-.3.78-.58,1.59Z" transform="translate(-255.21 -153.92)"/><path class="cls-1" d="M739,342.93l10.57-29.1H712.05c-5.7.39-20.08,2.42-27.65,19.24L644.19,443.84h0l-.05.13-.58,1.59c-2.6,7.61-11,38.07,18.75,41.86h49c3.1-.23,10.21-1.88,14.75-11.79l11.2-30.78H702l21.54-59.35H747.8c3.1-.23,10.21-1.88,14.75-11.78l11.2-30.79Z" transform="translate(-255.21 -153.92)"/><path class="cls-1" d="M644.19,443.84h0l-.05.13Z" transform="translate(-255.21 -153.92)"/><path class="cls-2" d="M413.92,313.92l-.9,0v0H381.08L320.6,480.68a32.52,32.52,0,0,0,18.21,6.74h37.56L436.8,320.79c-7.79-6.25-16.44-6.71-19.55-6.87Z" transform="translate(-255.21 -153.92)"/><path class="cls-2" d="M416.74,313.9h-1l-1.85,0h3.33Z" transform="translate(-255.21 -153.92)"/><path class="cls-2" d="M413.92,313.92H413v0Z" transform="translate(-255.21 -153.92)"/><path class="cls-1" d="M465.45,487.42h36.74L446.46,333.9c-8.06-18.62-24.36-19.59-29-19.83H381.05l55.8,153.7C444.73,485.75,460.33,487.15,465.45,487.42Z" transform="translate(-255.21 -153.92)"/><path class="cls-1" d="M290,313.9l-2.15,0h3.72l-.61,0Z" transform="translate(-255.21 -153.92)"/><path class="cls-1" d="M287.86,313.93h0Z" transform="translate(-255.21 -153.92)"/><path class="cls-1" d="M339.6,487.42h36.75L320.62,333.9c-8.07-18.62-24.36-19.59-29-19.83H255.21L311,467.77C318.89,485.75,334.49,487.15,339.6,487.42Z" transform="translate(-255.21 -153.92)"/><path class="cls-1" d="M528.44,314c-5.58.35-20.48,2.2-28.1,19.7L473.66,407h58.2l33.85-93Z" transform="translate(-255.21 -153.92)"/><path class="cls-2" d="M669.46,219.42l-66.11-65.5-20.58,56.86h0c-5.68,19.65,5.18,34,8.1,37.42l66.3,65.69.08,0L678.57,255a22.72,22.72,0,0,0,.8-2.86C680.09,247,680.91,232.08,669.46,219.42Z" transform="translate(-255.21 -153.92)"/><path class="cls-1" d="M598.58,475.89l58.75-161.82H619.79c-5.71.39-20.08,2.42-27.65,19.24L536.19,487.42h46.27v0S592.64,488.5,598.58,475.89Z" transform="translate(-255.21 -153.92)"/><path class="cls-1" d="M922.18,314.07h0Z" transform="translate(-255.21 -153.92)"/><path class="cls-1" d="M932.19,315.65c-3-1.24-8.06-1.51-10-1.58H830.55c-33.23,1.49-24,37-22.74,41.28l32.49,89.5H806.92l16.16-44.41H793c-4,.39-12.46,2.69-17.9,14.76h0l-11.83,32.5c-3,9.89-8.12,35.59,19.71,39.72H880c26.72-4,23-27.9,20-38.52l-33.49-92.25H891l-5.5,15.1h30.21c3.93-.4,12.09-2.69,17.51-14.13l7.95-21.83C944.5,324,938.33,318.16,932.19,315.65Z" transform="translate(-255.21 -153.92)"/><polygon class="cls-1" points="653.13 160.16 652.78 160.16 652.78 160.16 653.13 160.16"/></svg>