<?xml version="1.0" encoding="utf-8"?>
<!-- Generator: Adobe Illustrator 25.4.1, SVG Export Plug-In . SVG Version: 6.00 Build 0)  -->
<svg version="1.1" id="圖層_1" xmlns="http://www.w3.org/2000/svg" xmlns:xlink="http://www.w3.org/1999/xlink" x="0px" y="0px"
	 viewBox="0 0 686.9 333.5" style="enable-background:new 0 0 686.9 333.5;" xml:space="preserve">
<style type="text/css">
	.st0{fill:none;}
	.st1{fill:#006C98;}
	.st2{fill:#FFFFFF;}
	.st3{fill:#B0D261;}
</style>
<g>
	<g>
		<g>
			<g>
				<path class="st0" d="M388.9,290.1c-0.1,0.2-0.3,0.8-0.6,1.6L388.9,290.1z"/>
				<path class="st1" d="M483.8,189l10.6-29.1h-37.5c-5.7,0.4-20.1,2.4-27.7,19.2L389,289.9h0c0,0,0,0.1,0,0.1l-0.6,1.6
					c-2.6,7.6-11,38.1,18.7,41.9h49c3.1-0.2,10.2-1.9,14.8-11.8l11.2-30.8h-35.2l21.5-59.3h24.2c3.1-0.2,10.2-1.9,14.7-11.8
					l11.2-30.8H483.8z"/>
				<path class="st2" d="M389,289.9L389,289.9l0,0.1C389,290,389,289.9,389,289.9z"/>
			</g>
			<g>
				<path class="st3" d="M158.7,160c-0.5,0-0.9,0-0.9,0l0,0h-32L65.4,326.8c6.9,5.5,14.4,6.5,18.2,6.7h37.6l60.4-166.6
					c-7.8-6.3-16.4-6.7-19.6-6.9H158.7z"/>
				<path class="st0" d="M161.5,160c-0.1,0-0.5,0-1,0c-0.6,0-1.3,0-1.9,0h3.3C161.9,160,161.7,160,161.5,160z"/>
				<path class="st2" d="M158.7,160h-0.9l0,0C157.8,160,158.2,160,158.7,160z"/>
			</g>
			<path class="st1" d="M210.2,333.5H247L191.2,180c-8.1-18.6-24.4-19.6-29-19.8h-3.7c-0.3,0-0.6,0-0.6,0l0,0h-32.1l55.8,153.7
				C189.5,331.8,205.1,333.2,210.2,333.5z"/>
			<g>
				<path class="st0" d="M34.8,160c-0.7,0-1.6,0-2.1,0h3.7c-0.2,0-0.4,0-0.6,0C35.7,160,35.3,160,34.8,160z"/>
				<path class="st2" d="M62.9,333.3h20.7c-3.8-0.3-11.3-1.3-18.2-6.7L62.9,333.3z"/>
				<path class="st2" d="M32.7,160h-0.6l0,0C32,160,32.3,160,32.7,160z"/>
				<path class="st1" d="M84.4,333.5h36.7L65.4,180c-8.1-18.6-24.4-19.6-29-19.8h-3.7c-0.3,0-0.6,0-0.6,0l0,0H0l55.8,153.7
					C63.7,331.8,79.3,333.2,84.4,333.5z"/>
			</g>
			<g>
				<path class="st1" d="M273.2,160.1c-5.6,0.3-20.5,2.2-28.1,19.7l-26.7,73.3h58.2l33.9-93H273.2z"/>
			</g>
			<g>
				<path class="st3" d="M414.3,65.5L348.1,0l-20.6,56.9l0,0c-5.7,19.7,5.2,34,8.1,37.4L402,160l0.1,0l21.3-58.9
					c0.4-1.2,0.7-2.4,0.8-2.9C424.9,93.1,425.7,78.2,414.3,65.5z"/>
			</g>
			<g>
				<path class="st1" d="M343.4,322l58.7-161.8h-37.5c-5.7,0.4-20.1,2.4-27.7,19.2L281,333.5h46.3c0,0,0,0,0,0
					S337.4,334.6,343.4,322z"/>
			</g>
		</g>
	</g>
	<g>
		<path class="st0" d="M667,160.2c-0.5,0-0.8,0-0.8,0l-13,0h13.3H667z"/>
		<path class="st1" d="M677,161.7c-3-1.2-8.1-1.5-10-1.6h-0.5h-13.3l-0.3,0v0h-1.5h-55.5h-16.4h-4.1c-33.2,1.5-24,37-22.7,41.3
			l32.5,89.5h-33.4l16.2-44.4h-30c-4,0.4-12.5,2.7-17.9,14.8h0l-11.8,32.5c-3,9.9-8.1,35.6,19.7,39.7h8.4h64.3h10.4h13.8
			c26.7-4,23.1-27.9,20-38.5l-33.5-92.3h24.5l-5.5,15.1h30.2c3.9-0.4,12.1-2.7,17.5-14.1l7.9-21.8
			C689.3,170.1,683.1,164.2,677,161.7z"/>
		<polygon class="st2" points="653.1,160.2 652.8,160.2 652.8,160.2 		"/>
	</g>
</g>
</svg>
